<?xml version="1.0" encoding="iso-8859-1"?>
<!-- Generator: Adobe Illustrator 22.1.0, SVG Export Plug-In . SVG Version: 6.00 Build 0)  -->
<svg version="1.1" xmlns="http://www.w3.org/2000/svg" xmlns:xlink="http://www.w3.org/1999/xlink" x="0px" y="0px"
	 viewBox="0 0 100 100" style="enable-background:new 0 0 100 100;" xml:space="preserve">
<g id="Ebene_1" style="display:none;">
	<path id="Shape" style="display:inline;fill:#FF0002;" d="M12.539,26.916c0.122-1.207-0.338-2.4-1.239-3.212l-9.181-11.06v-1.652
		h28.506l22.034,48.323l19.371-48.323h27.175v1.652l-7.85,7.526c-0.677,0.516-1.012,1.364-0.872,2.203v55.298
		c-0.14,0.839,0.195,1.687,0.872,2.203l7.666,7.526v1.652H60.463V87.4l7.941-7.71c0.78-0.78,0.78-1.01,0.78-2.203V32.79
		l-22.08,56.079h-2.984L18.415,32.79v37.585c-0.214,1.58,0.31,3.171,1.423,4.314l10.328,12.528v1.652H0.88v-1.652l10.328-12.528
		c1.104-1.145,1.599-2.746,1.331-4.314V26.916z"/>
</g>
<g id="Ebene_2" style="display:none;">
	<g style="display:inline;">
		<path style="fill:#FF0002;" d="M6.097,35.254H25.18v61.398H6.097V35.254z M15.643,4.733c6.101,0,11.058,4.958,11.058,11.06
			c0,6.108-4.958,11.067-11.058,11.067c-6.116,0-11.067-4.959-11.067-11.067C4.576,9.691,9.527,4.733,15.643,4.733"/>
		<path style="fill:#FF0002;" d="M37.148,35.254h18.305v8.389h0.254c2.546-4.827,8.771-9.917,18.055-9.917
			c19.323,0,22.891,12.717,22.891,29.247v33.679H77.583V66.794c0-7.123-0.131-16.281-9.916-16.281
			c-9.93,0-11.451,7.757-11.451,15.766v30.373H37.148V35.254z"/>
	</g>
</g>
<g id="Ebene_3">
	<path style="fill:#FF0002;" d="M94.744,10.47c-2.955-1.929-7.082-0.415-8.376,0.145L7.326,41.621
		c-2.811,0.984-5.901,3.38-5.456,6.946c0.518,4.147,4.897,5.814,5.394,5.991c0.016,0.006,0.032,0.011,0.047,0.016l18.399,6.194
		c1.443,4.727,5.745,18.813,6.739,21.961c0.848,2.687,1.976,5.544,4.636,5.826c0.435,0.115,0.936,0.18,1.511,0.18
		c1.728,0,2.789-0.591,3.406-1.334l10.686-9.743l17.995,13.796c0.2,0.153,0.417,0.281,0.647,0.382
		c1.515,0.661,2.861,0.898,4.013,0.898c1.216,0,2.217-0.264,2.97-0.574c3.143-1.29,4.402-4.247,4.535-4.58
		c0.071-0.178,0.125-0.361,0.163-0.549l14.096-71.072c0.039-0.199,0.059-0.401,0.059-0.604C97.167,12.48,95.649,11.06,94.744,10.47z
		 M42.448,69.809l5.233,4.012l-6.357,5.796L42.448,69.809z M76.999,85.425c-0.155,0.258-0.521,0.777-1.043,0.991
		c-0.457,0.188-1.07,0.139-1.824-0.142L54.405,71.15l-9.722-7.597c8.221-7.391,33.863-30.447,35.134-31.634
		c1.045-0.976,2.221-2.326,2.032-4.118c-0.02-0.192-0.057-0.381-0.109-0.564c-0.173-1.088-0.778-2.016-1.709-2.577
		c-1.881-1.133-4.094-0.267-5.62,0.659c-0.018,0.011-0.036,0.022-0.053,0.033L27.801,54.92L9.345,48.707
		c-0.372-0.145-0.801-0.412-1.069-0.646c0.312-0.218,0.76-0.456,1.13-0.588c0.043-0.015,0.086-0.031,0.129-0.047L88.69,16.375
		c0.039-0.015,0.077-0.031,0.115-0.048c0.547-0.24,1.383-0.474,2.011-0.563L76.999,85.425z"/>
</g>
</svg>
