<?xml version="1.0" standalone="no"?>
<!DOCTYPE svg PUBLIC "-//W3C//DTD SVG 20010904//EN"
 "http://www.w3.org/TR/2001/REC-SVG-20010904/DTD/svg10.dtd">
<svg version="1.0" xmlns="http://www.w3.org/2000/svg"
 width="500.000000pt" height="500.000000pt" viewBox="0 0 500.000000 500.000000"
 preserveAspectRatio="xMidYMid meet">
<metadata>
Created by potrace 1.11, written by Peter Selinger 2001-2013
</metadata>
<g transform="translate(0.000000,500.000000) scale(0.100000,-0.100000)"
fill="#000000" stroke="none">
<path d="M1838 4676 c-1 -2 -41 -6 -88 -10 -47 -4 -96 -8 -110 -11 -14 -2 -43
-6 -65 -10 -256 -37 -473 -95 -721 -191 -180 -69 -467 -226 -631 -342 l-51
-37 178 -260 c98 -143 216 -315 263 -382 l83 -121 80 55 c160 110 375 211 596
279 336 103 652 117 884 39 171 -58 299 -201 349 -390 18 -70 32 -255 19 -256
-5 0 -263 -2 -574 -4 -311 -1 -576 -5 -590 -8 -14 -3 -56 -8 -95 -12 -242 -22
-494 -91 -700 -190 -380 -184 -585 -454 -650 -855 -18 -117 -13 -408 10 -515
9 -44 19 -89 21 -99 22 -113 121 -320 209 -437 62 -83 183 -206 260 -264 223
-169 526 -293 785 -319 30 -4 78 -9 105 -12 145 -18 383 -1 530 37 69 19 128
39 183 65 29 13 55 24 57 24 15 0 186 109 247 158 67 54 192 175 252 247 l26
30 0 -252 0 -253 553 0 553 0 -2 1448 c-1 796 -5 1472 -8 1502 -39 316 -120
543 -263 742 -133 185 -370 359 -628 462 -115 46 -205 71 -395 111 -9 2 -43 6
-75 10 -33 4 -69 10 -80 12 -22 6 -511 13 -517 9z m777 -2485 c17 -2 9 -268
-11 -368 -34 -170 -166 -333 -354 -436 -233 -128 -590 -137 -825 -22 -151 73
-233 197 -239 359 -8 216 89 349 305 419 65 21 182 42 274 50 30 2 831 1 850
-2z"/>
<path d="M4500 1136 c-296 -61 -431 -415 -251 -656 56 -74 119 -119 214 -151
51 -17 77 -20 142 -16 123 9 211 50 285 134 267 303 3 770 -390 689z"/>
</g>
</svg>
